<svg xmlns="http://www.w3.org/2000/svg" viewBox="0 0 128 128">
  <!-- Background - Monopoly Blue -->
  <rect width="128" height="128" fill="#0066cc" rx="20"/>
  <!-- Diamond pattern -->
  <path d="M64 10 L120 64 L64 118 L8 64 Z" fill="rgba(255, 255, 255, 0.1)"/>
  <path d="M64 30 L100 64 L64 98 L28 64 Z" fill="rgba(255, 255, 255, 0.1)"/>
  <!-- Bookmark icon -->
  <path d="M42 36 L86 36 L86 96 C86 98 84 100 82 100 L50 100 C48 100 46 98 46 96 Z" fill="white"/>
  <!-- Bookmark ribbon -->
  <path d="M50 100 L50 56 L54 60 L58 56 L62 60 L66 56 L70 60 L74 56 L78 60 L78 100 Z" fill="#0066cc"/>
  <!-- Dollar sign decoration -->
  <circle cx="64" cy="70" r="12" fill="#0066cc" fill-opacity="0.2"/>
  <text x="64" y="75" font-size="16" font-weight="bold" fill="#0066cc" text-anchor="middle">$</text>
</svg>
