<svg xmlns="http://www.w3.org/2000/svg" viewBox="0 0 128 128">
  <rect width="128" height="128" fill="#3B82F6" rx="16"/>
  <path d="M32 48 L48 32 L80 32 L96 48 L96 96 C96 100.4 92.4 104 88 104 L40 104 C35.6 104 32 100.4 32 96 Z" fill="white" fill-opacity="0.9"/>
  <path d="M52 56 C52 54 54 52 56 52 L72 52 C74 52 76 54 76 56 C76 58 74 60 72 60 L56 60 C54 60 52 58 52 56 Z M52 72 C52 70 54 68 56 68 L72 68 C74 68 76 70 76 72 C76 74 74 76 72 76 L56 76 C54 76 52 74 52 72 Z M52 88 C52 86 54 84 56 84 L72 84 C74 84 76 86 76 88 C76 90 74 92 72 92 L56 92 C54 92 52 90 52 88 Z" fill="#3B82F6"/>
</svg>
